<svg id="research" xmlns="http://www.w3.org/2000/svg" xmlns:xlink="http://www.w3.org/1999/xlink" width="64" height="64" viewBox="0 0 64 64"><defs><style>.cls-1{fill:none;}.cls-2{fill:#5592bc;}.cls-3{fill:#b6dcfc;}.cls-4{fill:#cde3fa;}.cls-5{fill:#fff;}.cls-6{clip-path:url(#clip-path);}.cls-7{fill:#ef9884;}.cls-8{fill:#87cfff;}</style><clipPath id="clip-path"><polygon class="cls-1" points="32 58 10 58 10 0 40 0 40 50 32 58"/></clipPath></defs><title>research</title><path class="cls-2" d="M42,10.54A2.45,2.45,0,0,0,39.67,8H2.33A2.45,2.45,0,0,0,0,10.54V61.45A2.45,2.45,0,0,0,2.33,64H39.67A2.45,2.45,0,0,0,42,61.45ZM40,62H2V10H40Z"/><path class="cls-3" d="M52.43,6.59a9.9,9.9,0,0,1,2,6,10,10,0,0,1-10,10,9.9,9.9,0,0,1-6-2A10,10,0,1,0,52.43,6.59Z"/><path class="cls-4" d="M44,0A12,12,0,1,0,56,12,12,12,0,0,0,44,0Zm0,22A10,10,0,1,1,54,12,10,10,0,0,1,44,22Z"/><path class="cls-4" d="M63,32.34a1,1,0,0,1-.71-.29L51,20.71a1,1,0,0,1,1.41-1.41L63.71,30.63A1,1,0,0,1,63,32.34Z"/><path class="cls-4" d="M50,14.91l-.2,0A1,1,0,0,1,49,13.71a6.51,6.51,0,0,0-5.1-7.65,1,1,0,0,1,.39-2,8.51,8.51,0,0,1,6.67,10A1,1,0,0,1,50,14.91Z"/><polygon class="cls-2" points="64 58 62 58 62 56 60 56 60 58 58 58 58 60 60 60 60 62 62 62 62 60 64 60 64 58"/><path class="cls-2" d="M42,6.54A2.45,2.45,0,0,0,39.67,4H2.33A2.45,2.45,0,0,0,0,6.54V57.45A2.45,2.45,0,0,0,2.33,60H39.67A2.45,2.45,0,0,0,42,57.45ZM40,58H2V6H40Z"/><rect class="cls-2" x="4" y="6" width="2" height="52"/><rect class="cls-2" x="8" y="6" width="2" height="52"/><polygon class="cls-5" points="32 58 10 58 10 6 40 6 40 50 32 58"/><g class="cls-6"><rect class="cls-7" x="32" y="50" width="16" height="16" rx="2" ry="2"/></g><rect class="cls-2" x="16" y="12" width="14" height="2"/><circle class="cls-2" cx="13" cy="13" r="1"/><rect class="cls-7" x="16" y="16" width="14" height="2"/><circle class="cls-7" cx="13" cy="17" r="1"/><rect class="cls-2" x="16" y="20" width="14" height="2"/><circle class="cls-2" cx="13" cy="21" r="1"/><rect class="cls-4" x="12" y="24" width="24" height="2"/><rect class="cls-2" x="14" y="28" width="36" height="2"/><rect class="cls-4" x="14" y="40" width="24" height="2"/><rect class="cls-2" x="12" y="44" width="38" height="2"/><polygon class="cls-7" points="23.23 45.63 17.49 47.31 11.75 48.99 17.22 51.63 19.86 57.1 21.54 51.37 23.23 45.63"/><rect class="cls-7" x="12.01" y="52.67" width="6" height="2" transform="translate(-33.55 26.33) rotate(-45)"/><rect class="cls-8" x="12" y="32" width="26" height="6"/><rect class="cls-8" x="48" y="36" width="6" height="6" transform="translate(-12.64 47.49) rotate(-45)"/><rect class="cls-8" x="48" y="52" width="6" height="6" transform="translate(-23.95 52.17) rotate(-45)"/><rect class="cls-2" x="50" y="44" width="2" height="6"/><rect class="cls-2" x="50" y="28" width="2" height="6"/><path class="cls-2" d="M62,40H58a1,1,0,0,1,0-2h4a1,1,0,0,1,0,2Z"/></svg>