<svg id="shop" xmlns="http://www.w3.org/2000/svg" xmlns:xlink="http://www.w3.org/1999/xlink" width="64" height="64" viewBox="0 0 64 64"><defs><style>.cls-1,.cls-2{fill:none;}.cls-2{stroke:#5592bc;stroke-linecap:round;stroke-linejoin:round;stroke-width:2px;}.cls-3{fill:#d0e7fc;}.cls-4{fill:#cde3fa;}.cls-5{fill:#e3e2f0;}.cls-6{fill:#5592bc;}.cls-7{fill:#ef9884;}.cls-8{fill:#87cfff;}.cls-9{clip-path:url(#clip-path);}</style><clipPath id="clip-path"><polygon class="cls-1" points="26.63 42 20.94 14 61.05 14 55.36 42 26.63 42"/></clipPath></defs><title>shop</title><polygon class="cls-2" points="56 43 26 43 19.88 13 62.22 13 56 43"/><path class="cls-3" d="M18.27,47.84h0a2.55,2.55,0,0,1-2-.87c-1.18-1.42-.36-3.9,1.91-5.79s4.89-2.2,6-.81a2.89,2.89,0,0,1,.22,3,7.37,7.37,0,0,1-2.14,2.78A6.57,6.57,0,0,1,18.27,47.84Zm3.84-6.33a4.65,4.65,0,0,0-2.71,1.22c-1.51,1.25-1.92,2.63-1.65,3a.7.7,0,0,0,.51.14h0A4.65,4.65,0,0,0,21,44.62a5.42,5.42,0,0,0,1.56-2c.2-.5.19-.85.09-1A.71.71,0,0,0,22.11,41.51Z"/><rect class="cls-4" x="26" y="6" width="12" height="8"/><circle class="cls-5" cx="47.5" cy="11.97" r="6"/><circle class="cls-6" cx="33.5" cy="13.97" r="6"/><rect class="cls-7" x="32" y="6" width="12" height="8"/><path class="cls-6" d="M30.5,54a4,4,0,1,0,4,4A4,4,0,0,0,30.5,54Zm0,6a2,2,0,1,1,2-2A2,2,0,0,1,30.5,60Z"/><path class="cls-6" d="M52.5,54a4,4,0,1,0,4,4A4,4,0,0,0,52.5,54Zm0,6a2,2,0,1,1,2-2A2,2,0,0,1,52.5,60Z"/><circle class="cls-8" cx="52.5" cy="57.97" r="2"/><circle class="cls-8" cx="30.5" cy="57.97" r="2"/><polygon class="cls-4" points="26.63 42 20.94 14 61.05 14 55.36 42 26.63 42"/><path class="cls-6" d="M52.75,54H27.5a2,2,0,0,1,0-4H46.75V48H27.5a4,4,0,0,0,0,8H52.75Z"/><path class="cls-6" d="M32.75,50H53.5a4,4,0,0,0,0-8H32.75v2H53.5a2,2,0,0,1,0,4H32.75Z"/><rect class="cls-6" x="6.75" y="8" width="14" height="2" rx="0.89" ry="0.89"/><path class="cls-6" d="M9,8H7.75a3,3,0,0,0,0,6H25V12H7.75a1,1,0,0,1,0-2H9"/><g class="cls-9"><path class="cls-8" d="M36.46,48a1,1,0,0,1,0,1.44h0a1,1,0,0,1-1.44,0L14.53,28.88a1,1,0,0,1,0-1.44h0a1,1,0,0,1,1.44,0Z"/><path class="cls-8" d="M38.46,46a1,1,0,0,1,0,1.44h0a1,1,0,0,1-1.44,0L16.53,26.88a1,1,0,0,1,0-1.44h0a1,1,0,0,1,1.44,0Z"/><path class="cls-8" d="M40.46,44a1,1,0,0,1,0,1.44h0a1,1,0,0,1-1.44,0L18.53,24.88a1,1,0,0,1,0-1.44h0a1,1,0,0,1,1.44,0Z"/><path class="cls-8" d="M42.46,42a1,1,0,0,1,0,1.44h0a1,1,0,0,1-1.44,0L20.53,22.88a1,1,0,0,1,0-1.44h0a1,1,0,0,1,1.44,0Z"/><path class="cls-8" d="M46.89,42.41a1.26,1.26,0,0,1,.29,1.7h0a1.26,1.26,0,0,1-1.71-.29L17.56,15.91a1.26,1.26,0,0,1-.29-1.7h0a1.25,1.25,0,0,1,1.7.29Z"/><path class="cls-8" d="M49.95,41.46c.57.57.72,1.35.33,1.74h0c-.39.39-1.17.24-1.74-.33L19.6,13.94c-.57-.57-.71-1.35-.32-1.74h0c.39-.39,1.17-.25,1.74.33Z"/><path class="cls-8" d="M54.37,41.88c.62.62.8,1.43.41,1.82h0c-.39.39-1.21.21-1.83-.41L21.68,12c-.62-.62-.8-1.43-.41-1.82h0c.39-.39,1.2-.21,1.82.41Z"/><path class="cls-8" d="M56.37,39.88c.62.62.8,1.43.41,1.82h0c-.39.39-1.21.21-1.83-.41L23.68,10c-.62-.62-.8-1.43-.41-1.82h0c.39-.39,1.2-.21,1.82.41Z"/><path class="cls-8" d="M58.37,37.88c.62.62.8,1.43.41,1.82h0c-.39.39-1.21.21-1.83-.41L25.68,8c-.62-.62-.8-1.43-.41-1.82h0c.39-.39,1.2-.21,1.82.41Z"/><path class="cls-8" d="M60.37,35.88c.62.62.8,1.43.41,1.82h0c-.39.39-1.21.21-1.83-.41L27.68,6c-.62-.62-.8-1.43-.41-1.82h0c.39-.39,1.2-.21,1.82.41Z"/><path class="cls-8" d="M62.37,33.88c.62.62.8,1.43.41,1.82h0c-.39.39-1.21.21-1.83-.41L29.68,4c-.62-.62-.8-1.43-.41-1.82h0c.39-.39,1.2-.21,1.82.41Z"/><path class="cls-8" d="M64.37,31.88c.62.62.8,1.43.41,1.82h0c-.39.39-1.21.21-1.83-.41L31.68,2c-.62-.62-.8-1.43-.41-1.82h0c.39-.39,1.2-.21,1.82.41Z"/><path class="cls-8" d="M66.37,29.88c.62.62.8,1.43.41,1.82h0c-.39.39-1.21.21-1.83-.41L33.68,0c-.62-.62-.8-1.43-.41-1.82h0c.39-.39,1.2-.21,1.82.41Z"/><path class="cls-8" d="M68.37,27.88c.62.62.8,1.43.41,1.82h0c-.39.39-1.21.21-1.83-.41L35.68-2c-.62-.62-.8-1.43-.41-1.82h0c.39-.39,1.2-.21,1.82.41Z"/><path class="cls-8" d="M70.37,25.88c.62.62.8,1.43.41,1.82h0c-.39.39-1.21.21-1.83-.41L37.68-4c-.62-.62-.8-1.43-.41-1.82h0c.39-.39,1.2-.21,1.82.41Z"/></g><rect class="cls-6" y="62" width="64" height="2"/><path class="cls-3" d="M15,62H9a3,3,0,0,1-3-3V53a3,3,0,0,1,3-3h6a3,3,0,0,1,3,3v6A3,3,0,0,1,15,62ZM9,52a1,1,0,0,0-1,1v6a1,1,0,0,0,1,1h6a1,1,0,0,0,1-1V53a1,1,0,0,0-1-1Z"/><path class="cls-3" d="M10.6,46.21c-2.22,0-3.23-3.7-3.23-7.14s1-7.15,3.23-7.15,3.23,3.7,3.23,7.15S12.82,46.21,10.6,46.21Zm0-12.3c-.27.16-1.18,1.92-1.18,5.15s.84,4.85,1.23,5.13c.39-.28,1.23-2,1.23-5.12S10.92,34.06,10.55,33.91Z"/><path class="cls-3" d="M13.14,47.05A2,2,0,0,1,12,46.71a2,2,0,0,1-.81-1.38c-.26-1.52.65-4,2.36-6.4,1.44-2,3.79-4.38,5.69-4.38a2,2,0,0,1,1.14.35c.61.43,1.21,1.39.62,3.5a14.6,14.6,0,0,1-2.17,4.29C17.4,44.7,15,47.05,13.14,47.05Zm6-10.56c-.56.06-2.27,1.19-4,3.6S13,44.55,13.18,45c.65,0,2.33-1.17,4-3.53C19.09,38.84,19.38,36.84,19.17,36.5Z"/><path class="cls-3" d="M7.05,48a6.33,6.33,0,0,1-4.13-2A6.3,6.3,0,0,1,.84,41.85,2.47,2.47,0,0,1,1.51,40c1.25-1.27,3.93-.67,5.95,1.32S10.16,46,8.87,47.3A2.48,2.48,0,0,1,7.05,48ZM3.33,41.35a.61.61,0,0,0-.39.11.59.59,0,0,0-.1.38,4.47,4.47,0,0,0,1.49,2.71A4.49,4.49,0,0,0,7.05,46a.61.61,0,0,0,.39-.11c.3-.31,0-1.72-1.39-3.1A4.5,4.5,0,0,0,3.33,41.35Z"/><path class="cls-3" d="M19,52H5a3,3,0,0,1,0-6H19a3,3,0,0,1,0,6ZM5,48a1,1,0,0,0,0,2H19a1,1,0,0,0,0-2Z"/></svg>